# xmcd
#
# Track frame offsets:
#	150
#	15635
#	32782
#	46517
#	58215
#	69525
#	80302
#	91405
#	100677
#	119355
#	130055
#	142722
#	155420
#	173330
#	186305
#
# Disc length: 2624 seconds
#
# Revision: 0
# Processed by: cddbd v1.4PL0 Copyright (c) Steve Scherf et al.
# Submitted via: EasyCDDAExtractor 4.6.9.1
#
DISCID=b50a3e0f
DTITLE=Melvin Goins and Windy Mountain - Bluegrass Blues
DYEAR=1999
DGENRE=Bluegrass
TTITLE0=Bluegrass Blues
TTITLE1=Talk To Your Heart
TTITLE2=One More Time, My Darlin'
TTITLE3=Windy Mountain
TTITLE4=My Home In The Mountains
TTITLE5=Why Do You Treat Me The Way That You Do
TTITLE6=He Showed Me The Way
TTITLE7=Stokes Run
TTITLE8=Worry No More
TTITLE9=I'll Never Change My Mind
TTITLE10=Death Came Creepin' In My Room
TTITLE11=Pass Me Not
TTITLE12=We'll Love Again Sweetheart
TTITLE13=Let Those Brown Eyes Smile At Me
TTITLE14=Mouse Tracks In The Bacon Grease
EXTD=
EXTT0=
EXTT1=
EXTT2=
EXTT3=
EXTT4=
EXTT5=
EXTT6=
EXTT7=
EXTT8=
EXTT9=
EXTT10=
EXTT11=
EXTT12=
EXTT13=
EXTT14=
PLAYORDER=
